<svg viewBox="0 0 2895 781" fill="none" xmlns="http://www.w3.org/2000/svg" class="w-full text-white"><path d="M0 202.569C1.95041 196.995 2.78994 190.955 6.10102 186.969C11.6294 180.313 18.326 174.424 25.2631 169.181C42.4952 156.157 60.1175 143.648 77.6269 130.993C93.3064 119.661 109.061 108.433 124.752 97.1165C141.351 85.1448 157.908 73.1159 174.491 61.1241C187.819 51.4873 201.126 41.8233 214.507 32.2618C220.651 27.8718 226.76 23.385 233.216 19.4901C248.262 10.4117 267.116 12.3697 280.434 24.2055C292.154 34.6215 296.071 47.9423 293.106 63.4148C292.248 67.8942 292.35 72.5567 291.999 77.1343C290.669 94.4629 289.382 111.795 287.983 129.118C287.075 140.371 285.989 151.609 285.003 162.856C283.66 178.171 282.494 193.503 280.946 208.797C279.934 218.797 279.153 228.921 276.892 238.67C273.339 253.983 262.294 262.994 247.688 266.555C240.327 268.349 232.161 267.07 224.372 266.795C220.013 266.641 215.697 265.531 211.335 265.142C195.516 263.732 179.68 262.52 163.863 261.088C150.365 259.866 136.888 258.418 123.397 257.118C109.24 255.753 95.0759 254.463 80.9183 253.106C67.2615 251.797 53.611 250.422 39.9541 249.116C27.2668 247.902 16.2442 243.102 8.42629 232.874C4.15579 227.287 0.83942 220.864 0.38445 213.257C-2.98023e-08 209.75 0 206.389 0 202.569Z" fill="currentColor"></path><path d="M431.953 767.111C345.639 767.111 259.817 767.153 173.996 767.065C161.47 767.052 151.13 758.794 147.174 748.119C138.607 725.002 130.978 701.536 123.043 678.186C113.975 651.503 105.05 624.772 95.9565 598.097C86.7069 570.963 77.2881 543.887 68.0183 516.76C58.9546 490.236 50.0061 463.672 40.9688 437.139C32.608 412.592 24.2334 388.049 15.7956 363.529C9.18357 344.314 19.479 325.892 36.9827 320.681C40.8199 319.539 45.0156 319.178 49.047 319.174C126.37 319.089 203.693 319.127 281.016 319.096C295.33 319.09 305.903 326.145 313.938 337.121C323.424 350.079 328.21 365.395 333.95 380.175C341.538 399.716 348.933 419.332 356.405 438.918C363.932 458.645 371.448 478.377 378.974 498.105C387.075 519.336 395.182 540.564 403.288 561.793C409.853 578.984 416.406 596.18 422.991 613.363C432.148 637.254 441.481 661.079 450.444 685.043C455.933 699.719 460.99 714.561 466.008 729.406C469.04 738.376 465.637 746.358 460.838 753.642C454.191 763.73 444.39 767.846 431.953 767.111Z" fill="currentColor"></path><path d="M800.007 357.13C808.95 375.852 816.492 394.732 821.929 414.382C825.574 427.553 829.533 440.732 831.798 454.168C835.249 474.643 823.891 492.162 802.722 494.114C791.815 495.121 780.901 496.054 770 497.127C757.16 498.39 744.342 499.878 731.495 501.062C722.185 501.919 712.831 502.302 703.519 503.145C690.342 504.337 677.187 505.775 664.019 507.075C659.944 507.477 655.861 507.797 651.778 508.106C638.367 509.12 624.947 510.033 611.542 511.133C596.38 512.377 581.23 513.771 566.076 515.117C554.995 516.101 543.919 517.141 532.836 518.105C517.18 519.466 501.532 520.968 485.855 522.032C478.57 522.526 471.076 523.065 463.938 521.933C451.607 519.976 445.137 510.787 441.032 499.878C431.008 473.236 421.133 446.538 411.271 419.835C404.12 400.471 397.168 381.033 389.981 361.682C380.849 337.094 371.515 312.58 362.369 287.996C355.171 268.648 348.123 249.244 341.011 229.863C336.935 218.756 333.243 207.49 328.707 196.574C320.147 175.971 332.165 154.384 354.687 150.091C369.898 147.192 385.017 143.757 400.29 141.251C408.994 139.823 417.916 139.578 426.756 139.161C438.161 138.622 449.612 137.777 460.99 138.276C475.836 138.928 490.653 140.559 505.442 142.141C531.172 144.894 556.01 151.573 580.346 160.137C606.133 169.212 630.956 180.456 653.805 195.558C668.859 205.507 683.986 215.52 697.948 226.895C711.366 237.828 724.163 249.801 735.71 262.682C749.213 277.745 761.945 293.685 773.374 310.366C783.413 325.021 791.191 341.225 800.007 357.13Z" fill="currentColor"></path><path d="M1113.44 367.867C1087.73 367.915 1062.03 367.962 1035.78 367.749C1035.06 367.266 1034.85 367.11 1034.59 367.022C1034.53 365.028 1034.43 363.035 1034.43 361.041C1034.42 241.007 1034.42 120.972 1034.42 0.468652C1088.44 -4.94719e-06 1142.46 -4.9675e-06 1196.95 3.2503e-08C1202.32 0.666521 1207.2 1.46691 1212.12 1.9752C1228.87 3.70755 1245.07 7.49036 1260.66 13.9847C1273.43 19.3047 1284.49 26.9805 1293.94 37.0196C1304.09 47.8094 1310.35 60.7751 1314.37 74.8475C1317.87 87.0954 1318.85 99.6717 1319.63 112.404C1321.38 140.923 1316.63 167.895 1302.85 192.956C1294.08 208.917 1281.48 221.254 1265.61 230.524C1252.08 238.426 1237.48 243.083 1222.36 245.77C1211.93 247.624 1201.11 247.335 1189.78 248.096C1188.78 248.324 1188.56 248.55 1188.44 248.867C1164 248.867 1139.57 248.867 1114.41 248.867C1114.41 288.116 1114.41 327.104 1114.16 366.645C1113.67 367.366 1113.51 367.589 1113.44 367.867ZM1239.42 115.246C1239.25 101.079 1233.53 89.9855 1221.79 81.7488C1210.53 73.8502 1197.63 71.7792 1184.58 71.1775C1168.63 70.4419 1152.62 71.0178 1136.64 71.0243C1129.36 71.0273 1122.08 71.0248 1114.8 71.0248C1114.8 106.944 1114.8 142.436 1114.8 177C1135.9 177 1156.63 177.384 1177.34 176.816C1186.01 176.579 1194.88 175.234 1203.2 172.818C1233.85 163.919 1241.29 140.03 1239.42 115.246Z" fill="currentColor"></path><path d="M1347.59 367.021C1347.53 365.859 1347.43 364.696 1347.43 363.534C1347.42 276.368 1347.42 189.202 1347.42 102.035C1347.42 100.889 1347.42 99.743 1347.42 98.299C1370.37 98.299 1393.11 98.299 1416.12 98.299C1418.3 120.008 1417.24 141.322 1407.82 161.581C1415.61 164.13 1414.07 163.975 1416.19 157.294C1420.23 144.534 1425.28 132.329 1432.41 121.008C1441.71 106.22 1454.58 95.5788 1472.04 93.4394C1488.05 91.4778 1504.28 92.3103 1519.06 100.806C1521.86 102.418 1522.47 104.242 1522.46 107.108C1522.39 130.773 1522.42 154.44 1522.42 178.903C1517.83 176.129 1513.82 173.055 1509.32 171.141C1502.02 168.033 1494.57 164.218 1486.87 163.299C1466.52 160.872 1447.82 165.46 1434.67 182.531C1427.09 192.366 1422.99 204.069 1420.29 216.347C1417.06 231.021 1417.44 245.789 1417.43 260.593C1417.4 295.759 1417.41 330.925 1417.16 366.646C1416.67 367.367 1416.51 367.589 1416.44 367.867C1394.07 367.915 1371.7 367.962 1348.78 367.749C1348.06 367.266 1347.85 367.11 1347.59 367.021Z" fill="currentColor"></path><path d="M1557.11 154.775C1575.38 126.984 1600.15 108.373 1631.45 98.4532C1648.73 92.9777 1666.61 91.68 1684.47 93.1765C1706.78 95.0462 1727.51 102.688 1745.95 115.309C1763.02 126.99 1776.75 142.037 1787.18 160.144C1794.91 173.545 1799.72 187.917 1803.19 202.77C1804.74 209.385 1804.99 216.35 1805.35 223.182C1805.69 229.813 1805.7 236.49 1805.37 243.123C1804.52 260.187 1800.52 276.491 1793.84 292.282C1787.47 307.359 1778.49 320.695 1767.35 332.368C1755.08 345.215 1740.7 355.717 1723.89 361.817C1712.04 366.117 1699.73 369.952 1687.3 371.616C1676.16 373.108 1664.57 371.623 1653.2 370.955C1641.04 370.24 1629.23 367.228 1618.36 361.874C1607.61 356.58 1596.91 350.842 1587.17 343.919C1575.12 335.351 1565.39 324.122 1557.51 311.53C1547.19 295.045 1539.48 277.43 1537.54 257.903C1536.24 244.817 1534.9 231.545 1535.71 218.488C1536.8 200.939 1541.49 183.958 1549.77 168.207C1552.1 163.796 1554.47 159.415 1557.11 154.775ZM1612.46 268.226C1613.52 270.016 1614.62 271.791 1615.66 273.599C1630.13 298.848 1655.96 308.534 1681.09 304.771C1701.88 301.659 1717.02 289.536 1726.42 270.686C1735.42 252.642 1736.54 233.434 1733.27 213.963C1731.13 201.262 1725.67 189.697 1716.94 180.124C1703.96 165.887 1687.77 159.164 1668.28 159.899C1652.18 160.506 1638.53 166.429 1626.88 177.131C1613.78 189.168 1607.2 204.741 1605.61 222.053C1604.2 237.545 1605.3 253.043 1612.46 268.226Z" fill="currentColor"></path><path d="M2105.95 0C2106.42 116.071 2106.38 232.142 2106.52 348.213C2106.53 354.63 2107.98 361.046 2108.83 368.012C2084.52 368.012 2060.93 368.012 2036.78 367.751C2036.07 367.257 2035.84 367.1 2035.57 367.019C2030.96 347.5 2034.96 329.664 2046.04 313.326C2044.79 313.018 2043.46 312.292 2042.31 312.509C2040.93 312.767 2038.89 313.558 2038.54 314.589C2033.3 330.341 2023.64 343.187 2011.13 353.525C1998.5 363.955 1983.77 370.147 1966.99 371.09C1951.28 371.974 1936.04 370.017 1921.24 364.959C1906.96 360.079 1894.2 352.495 1882.56 342.769C1867.82 330.441 1857.15 315.201 1848.99 298.051C1842.37 284.164 1838 269.581 1836.44 254.234C1835.65 246.426 1834.21 238.551 1834.61 230.784C1835.4 215.114 1837.27 199.631 1842.06 184.405C1849.66 160.269 1862.52 139.753 1881.13 122.953C1897.58 108.109 1916.73 98.0055 1938.93 95.1356C1950.48 93.6432 1962.32 92.4116 1973.86 93.2811C1993.11 94.7323 2010.27 102.294 2023.06 117.318C2027.88 122.968 2031.18 129.908 2035.42 136.668C2035.42 91.2688 2035.42 46.103 2035.42 0.468657C2058.78 2.98023e-08 2082.13 0 2105.95 0ZM2007.41 296.448C2014.66 292.715 2020.31 287.21 2025.17 280.755C2034.14 268.852 2039.23 255.416 2040.34 240.65C2041.38 226.861 2039.74 213.294 2034.39 200.401C2026.83 182.182 2014.19 169.027 1995.53 161.975C1983.45 157.407 1971.1 157.242 1958.43 158.909C1942.95 160.944 1930.85 168.767 1921.69 180.663C1910.79 194.822 1906.93 211.891 1906.7 229.332C1906.56 240.279 1908.03 251.544 1910.76 262.156C1914.06 274.971 1920.93 286.132 1932.09 294.268C1945.04 303.706 1959.33 306.94 1975.16 306.149C1986.62 305.577 1997.07 302.64 2007.41 296.448Z" fill="currentColor"></path><path d="M2397.44 367.849C2374.74 367.903 2352.03 367.958 2328.78 367.751C2328.07 367.258 2327.84 367.1 2327.57 367.019C2323.19 348.155 2323.51 329.942 2335 313.316C2333.18 312.895 2331.33 312.468 2329.22 311.981C2326.36 318.097 2323.68 324.379 2320.55 330.428C2308.61 353.484 2290.82 369.726 2265.09 375.595C2253.17 378.312 2240.94 377.812 2228.69 376.236C2218.64 374.944 2209.24 372.346 2199.97 368.34C2189.11 363.646 2180.55 356.12 2173.54 347.135C2160.52 330.454 2154.67 310.769 2152.49 289.983C2151.41 279.695 2150.63 269.333 2150.5 258.995C2149.83 205.579 2149.42 152.161 2148.91 98.3695C2172.56 98.3695 2195.63 98.3695 2219.42 98.3695C2219.42 99.831 2219.42 101.578 2219.42 103.324C2219.42 143.823 2219.35 184.322 2219.47 224.821C2219.5 236.576 2219.43 248.397 2220.61 260.065C2221.72 270.931 2223.95 281.751 2226.57 292.371C2228.86 301.644 2239.59 309.499 2249.09 309.979C2260.75 310.567 2272.29 310.435 2283.73 307.104C2300.02 302.362 2311 291.952 2317.3 276.672C2322.88 263.157 2324.52 248.824 2324.47 234.207C2324.33 189.046 2324.42 143.883 2324.42 98.3606C2347.91 98.3606 2371.31 98.3606 2395.02 98.3606C2395.48 104.594 2396.35 111.103 2396.36 117.613C2396.46 191.111 2396.35 264.609 2396.51 338.107C2396.53 347.447 2397.75 356.785 2398.15 366.665C2397.68 367.37 2397.52 367.584 2397.44 367.849Z" fill="currentColor"></path><path d="M2463.16 136.673C2476.3 118.531 2493.3 106.445 2513.94 98.6491C2537.55 89.7285 2562 88.8254 2586.51 90.2604C2607.17 91.4699 2627.16 96.6663 2645.54 106.969C2661.24 115.775 2673.61 127.83 2683.08 143.113C2690.65 155.333 2694.47 168.814 2697.4 182.659C2697.53 183.262 2697.34 183.93 2697.3 184.6C2673.71 188.288 2650.26 191.954 2626.55 195.66C2622.08 173.325 2606.53 161.901 2585.82 157.436C2567.97 153.587 2550.03 154.752 2534.46 166.08C2523.2 174.278 2516.18 185.68 2512.5 199.018C2508.51 213.487 2507.54 228.124 2509.2 243.177C2510.33 253.377 2511.62 263.433 2515.53 272.863C2522.66 290.089 2535.12 301.395 2553.82 304.966C2560.16 306.179 2566.63 308.046 2572.97 307.794C2590.64 307.092 2607.84 304.415 2620.77 290.231C2627.05 283.33 2630.51 275.139 2632.29 266.242C2633.01 262.607 2634.57 261.515 2637.82 262.012C2648.24 263.604 2658.64 265.335 2669.07 266.845C2679.37 268.336 2689.68 269.755 2700.02 270.926C2703.48 271.316 2704.57 271.39 2703.72 275.868C2701.3 288.625 2697.48 300.785 2691.37 312.174C2684.61 324.776 2675.6 335.468 2664.46 344.638C2647.02 359.006 2626.95 366.715 2604.92 369.953C2597.98 370.972 2590.96 371.629 2583.96 371.923C2575.98 372.257 2567.95 372.437 2559.99 371.919C2535.26 370.31 2511.66 365.083 2490.23 351.529C2470.82 339.254 2457.72 322.364 2449.1 301.393C2443.48 287.721 2439.53 273.684 2438.49 258.963C2437.5 245.166 2435.89 231.261 2436.68 217.525C2438.1 192.773 2442.96 168.635 2456.42 147.095C2458.54 143.691 2460.77 140.348 2463.16 136.673Z" fill="currentColor"></path><path d="M2717.57 161.019C2717.57 140.216 2717.57 119.414 2717.57 98.0049C2736.2 98.2392 2752.84 92.8373 2764.18 77.4581C2774.74 63.1534 2779.83 46.5243 2780.62 28.3328C2805.05 28.3328 2829.58 28.3328 2854.49 28.3328C2854.07 44.2167 2849.56 58.5114 2839.89 71.0028C2829.06 84.9881 2814.45 91.5851 2797 91.9005C2792.55 91.9808 2791.93 93.9647 2792.63 97.8453C2825.28 97.8453 2858.05 97.8453 2891.11 97.8453C2891.11 119.259 2891.11 140.324 2891.11 161.809C2869.83 161.809 2848.43 161.809 2826.69 161.809C2826.58 163.633 2826.43 165.064 2826.43 166.495C2826.42 207.145 2826.39 247.795 2826.48 288.445C2826.48 292.176 2826.7 296.071 2827.77 299.606C2831.51 312.051 2837.77 314.27 2850.38 311.186C2857.48 309.45 2863.87 304.762 2870.54 301.344C2871.94 300.626 2873.21 299.643 2875.46 298.184C2881.66 318.088 2887.67 337.419 2894.05 356.875C2894.42 357.75 2894.42 358.5 2894.42 359.625C2883.26 367.323 2870.86 371.8 2857.84 373.708C2835.62 376.966 2813.42 376.776 2792.53 366.954C2777.84 360.046 2768.07 348.456 2762.33 333.198C2758.02 321.746 2756.46 309.946 2756.45 297.872C2756.38 254.562 2756.42 211.252 2756.42 167.941C2756.42 166.137 2756.42 164.333 2756.42 162.012C2743.87 162.012 2731.6 162.012 2718.78 161.751C2718.07 161.258 2717.84 161.1 2717.57 161.019Z" fill="currentColor"></path><path d="M1163.89 781C1159.69 780.334 1155.98 779.547 1152.24 779.024C1138.96 777.168 1126.29 773.439 1113.88 768.258C1093.91 759.915 1077.35 747.057 1063.15 731.088C1053.92 720.711 1046.79 708.868 1041.78 695.817C1035.45 679.311 1031.79 662.345 1032.5 644.039C1059.42 646.071 1086.14 648.086 1112.09 650.044C1113.85 658.372 1114.92 666.585 1117.36 674.363C1121.84 688.595 1131.78 698.045 1145.21 704.406C1157.88 710.409 1171.27 711.763 1184.8 710.823C1198.16 709.895 1211.31 706.873 1222.48 698.878C1230.81 692.92 1236.26 684.872 1237.47 674.265C1239.35 657.678 1231.39 649.576 1220.38 642.438C1208.09 634.471 1194.01 630.855 1180.44 626.146C1160.92 619.377 1141.09 613.499 1121.48 606.995C1101.57 600.393 1082.48 591.827 1066.36 578.234C1050.7 565.028 1039.84 548.642 1037.36 527.515C1033.67 496.14 1040.23 467.543 1059.64 442.319C1073.59 424.193 1091.82 411.966 1113.12 403.938C1128.85 398.01 1145.02 394.634 1161.8 393.995C1169.89 393.687 1178.01 392.661 1186.05 393.125C1209.04 394.449 1231.65 397.683 1253.05 407.113C1272.44 415.654 1288.32 428.378 1300.41 445.612C1311.73 461.764 1318.54 479.868 1321.42 499.407C1322.88 509.361 1324.25 519.33 1325.75 529.909C1321.35 529.584 1317.33 529.489 1313.38 528.956C1301.8 527.398 1290.25 525.626 1278.67 524.012C1268.7 522.621 1258.72 521.292 1248.73 520.016C1244.05 519.418 1243.61 515.833 1243.47 512.391C1242.48 487.61 1226.85 470.932 1203.46 466.17C1193.6 464.162 1183.34 462.98 1173.31 463.253C1160.09 463.612 1147.05 466.238 1135.73 474.009C1121.45 483.811 1116.8 499.096 1122.58 514.626C1126.4 524.885 1134.91 531.385 1144.33 536.374C1159.58 544.445 1176.15 548.971 1192.52 554.066C1215.43 561.193 1238.36 568.295 1260.95 576.35C1277.08 582.104 1291.39 591.443 1303.03 604.201C1312.31 614.373 1318.28 626.329 1320.46 640.109C1323.64 660.203 1321.74 679.805 1315.46 699.082C1306.73 725.854 1289.56 745.712 1265.61 759.982C1249.41 769.634 1231.7 775.063 1213.19 777.961C1206.75 778.967 1200.24 779.471 1193.59 780.602C1183.73 781 1174.05 781 1163.89 781Z" fill="currentColor"></path><path d="M1519.45 564.835C1498.32 564.835 1477.18 564.835 1455.75 564.835C1455.64 566.469 1455.48 567.742 1455.48 569.015C1455.45 611.503 1455.24 653.992 1455.55 696.478C1455.64 707.87 1459.23 712.939 1466.35 715.315C1472.89 717.499 1479.14 715.283 1485.08 712.627C1488.44 711.127 1491.57 709.108 1494.75 707.233C1497.77 705.459 1500.71 703.566 1503.77 701.668C1509.96 721.112 1515.99 740.165 1522.12 759.188C1523.02 761.977 1522.14 763.613 1519.83 765.168C1509.88 771.847 1498.57 775.028 1487.04 776.816C1477.03 778.369 1466.74 779.116 1456.62 778.825C1439.57 778.334 1423.18 774.117 1409.56 763.447C1397.43 753.953 1390.03 740.856 1387.58 725.606C1386.07 716.257 1385.56 706.667 1385.51 697.181C1385.31 653.364 1385.42 609.545 1385.42 565.31C1372.61 565.31 1359.87 565.31 1346.78 565.31C1346.78 543.833 1346.78 522.767 1346.78 501.836C1352.79 500.921 1359.09 500.367 1365.19 498.957C1383.57 494.711 1394.42 482.023 1401.38 465.412C1405.58 455.381 1408.62 445.037 1408.58 433.965C1408.58 432.981 1410.79 431.135 1411.98 431.126C1435.28 430.956 1458.58 431 1481.86 431C1484.15 458.778 1465.46 495.332 1421.66 496.319C1421.66 497.708 1421.66 499.111 1421.66 501.013C1453.97 501.013 1486.25 501.013 1519.08 501.272C1519.79 501.77 1520.01 501.918 1520.29 501.975C1520.34 522.351 1520.4 542.726 1520.18 563.641C1519.69 564.347 1519.53 564.566 1519.45 564.835Z" fill="currentColor"></path><path d="M1643.89 781C1638.13 780.001 1632.8 779.124 1627.54 777.98C1614.27 775.094 1602.39 769.577 1592.15 760.342C1575.03 744.881 1567.67 724.739 1563.39 702.91C1560.11 686.226 1559.35 669.392 1559.38 652.444C1559.49 603.947 1559.42 555.45 1559.42 506.953C1559.42 505.146 1559.42 503.338 1559.42 501.27C1582.76 501.27 1605.83 501.27 1629.42 501.27C1629.42 503.061 1629.42 504.835 1629.42 506.609C1629.42 554.939 1629.06 603.274 1629.65 651.596C1629.82 665.168 1631.45 679.055 1634.85 692.165C1638.7 707.021 1646.39 712.661 1661.98 713.821C1676.51 714.902 1690.83 713.269 1704.11 706.06C1717.51 698.782 1725.19 687.274 1729.36 673.174C1733.95 657.654 1734.53 641.65 1734.47 625.557C1734.32 586.06 1734.42 546.563 1734.42 507.065C1734.42 505.249 1734.42 503.434 1734.42 501.309C1758.02 501.309 1781.42 501.309 1805.42 501.309C1805.42 502.971 1805.42 504.734 1805.42 506.497C1805.42 541.161 1805.3 575.826 1805.45 610.49C1805.67 658.742 1806.02 706.994 1806.52 755.244C1806.57 760.331 1807.99 765.404 1808.85 771C1796.61 771 1785.15 771 1773.69 771C1763.02 771 1752.35 770.722 1741.7 771.138C1737.5 771.303 1735.91 769.265 1735.5 766.067C1734 754.184 1733.33 742.247 1737.48 730.712C1739.18 726.007 1741.65 721.582 1743.91 716.711C1742.33 716.278 1740.54 715.79 1738.62 715.262C1735.9 721.521 1733.65 728.073 1730.36 734.046C1719.14 754.364 1703.9 770.298 1680.88 777.098C1676.26 778.464 1671.45 779.203 1666.58 780.616C1659.07 781 1651.71 781 1643.89 781Z" fill="currentColor"></path><path d="M2088.42 771C2072.93 771 2057.93 770.899 2042.94 771.073C2039.32 771.115 2037.96 770.146 2037.3 766.347C2034.15 748.42 2038.54 732.32 2048.59 716.989C2046.49 716.379 2044.7 715.859 2042.39 715.185C2041.12 718.078 2039.65 721.087 2038.46 724.2C2033.16 738.026 2023.48 748.52 2012.54 757.937C2003.01 766.142 1991.72 771.455 1979.42 773.32C1970.32 774.702 1960.82 774.572 1951.6 773.847C1943.31 773.195 1935.12 770.998 1926.96 769.155C1913.54 766.124 1902.04 759.013 1891.12 751.077C1875.49 739.722 1863.81 724.948 1854.77 707.901C1846.7 692.698 1841.06 676.771 1839.5 659.623C1838.41 647.674 1836.97 635.588 1837.69 623.683C1838.72 606.628 1842.75 590.03 1849.69 574.185C1856.86 557.799 1866.51 543.222 1879.24 530.701C1895.63 514.585 1914.95 503.795 1937.51 499.002C1957.11 494.838 1976.59 494.792 1995.81 501.008C2013.33 506.671 2026.06 517.962 2034.46 534.259C2035.54 536.35 2036.68 538.406 2038.33 541.461C2038.33 494.777 2038.33 449.136 2038.33 403.248C2062.14 403.248 2085.54 403.248 2109.42 403.248C2109.42 405.259 2109.42 407.203 2109.42 409.147C2109.42 524.106 2109.39 639.064 2109.51 754.022C2109.52 759.494 2110.83 764.965 2111.6 771C2103.82 771 2096.37 771 2088.42 771ZM1956.22 563.041C1955.81 563.316 1955.42 563.753 1954.97 563.844C1942.39 566.374 1932.52 573.6 1924.92 583.304C1915.15 595.766 1910.79 610.75 1909.56 626.344C1908.34 641.896 1909.5 657.432 1915.52 672.075C1921.15 685.77 1929.78 697.222 1943.62 703.554C1956.42 709.41 1969.79 711.176 1983.97 709.175C1998.08 707.184 2010.58 702.097 2020.54 692.192C2041.23 671.613 2046.76 646.318 2041.34 618.289C2037.69 599.391 2028.3 583.597 2012.39 572.701C1995.67 561.256 1976.9 558.368 1956.22 563.041Z" fill="currentColor"></path><path d="M2156.42 458.961C2156.42 436.166 2156.42 413.866 2156.42 391.283C2182.06 391.283 2207.46 391.283 2233.14 391.283C2233.14 416.641 2233.14 442.037 2233.14 467.717C2207.78 467.717 2182.38 467.717 2156.42 467.717C2156.42 465 2156.42 462.229 2156.42 458.961Z" fill="currentColor"></path><path d="M2169.45 501C2189.92 501 2209.89 501 2230.14 501C2230.14 590.976 2230.14 680.701 2230.14 770.713C2206.78 770.713 2183.38 770.713 2159.7 770.713C2159.7 681.019 2159.7 591.294 2159.7 501C2162.74 501 2165.85 501 2169.45 501Z" fill="currentColor"></path><path d="M2384.76 776.007C2378.38 775.003 2372.38 774.415 2366.61 772.907C2357.98 770.647 2349.31 768.255 2341.01 765.001C2324.53 758.537 2310.19 748.579 2297.88 735.889C2280.68 718.143 2268.87 697.223 2263.57 673.046C2261.32 662.759 2260.5 652.129 2259.48 641.61C2257.73 623.594 2260.7 606.102 2266.41 589.048C2271.89 572.699 2280.14 557.964 2291.17 544.573C2307.78 524.416 2328.6 510.676 2353.22 502.881C2362.98 499.791 2373.45 498.954 2383.57 496.985C2397.23 494.328 2410.77 496.56 2423.98 499.24C2438.42 502.171 2452.18 507.677 2464.74 515.76C2474.51 522.052 2483.61 529.119 2491.59 537.628C2508.25 555.377 2519.39 576.061 2525.46 599.603C2529.7 616.04 2530.41 632.819 2529.21 649.511C2528.01 666.096 2523.62 682.103 2516.74 697.447C2509.62 713.347 2499.94 727.352 2487.47 739.349C2474.21 752.113 2458.85 761.694 2441.45 768.008C2423.24 774.619 2404.44 776.67 2384.76 776.007ZM2334.47 604.642C2330.06 614.438 2328.98 625.001 2328.66 635.449C2328.43 642.631 2329.91 649.996 2331.52 657.078C2336.16 677.54 2347.5 693.189 2366.56 702.528C2378.65 708.453 2391.39 710.347 2404.92 708.156C2415.08 706.514 2424.29 702.778 2432.03 696.569C2441.06 689.321 2448.11 680.212 2452.51 669.076C2459.15 652.28 2460.19 634.966 2457.03 617.637C2454.33 602.835 2447.79 589.588 2436.13 579.127C2420.27 564.903 2402 560.368 2381.53 564.521C2371.4 566.576 2362.19 570.821 2353.99 577.66C2345.26 584.934 2339.04 593.597 2334.47 604.642Z" fill="currentColor"></path><path d="M2717.52 161.288C2717.84 161.1 2718.07 161.258 2718.32 161.679C2718.09 161.764 2717.78 161.661 2717.52 161.288Z" fill="#0E0E0E"></path><path d="M1519.71 564.882C1519.53 564.566 1519.69 564.347 1520.1 564.104C1520.18 564.329 1520.08 564.629 1519.71 564.882Z" fill="#010101"></path><path d="M1520.32 501.713C1520.01 501.919 1519.79 501.771 1519.54 501.348C1519.76 501.259 1520.06 501.354 1520.32 501.713Z" fill="#010101"></path><path d="M2397.7 367.888C2397.52 367.584 2397.67 367.37 2398.08 367.116C2398.16 367.327 2398.06 367.627 2397.7 367.888Z" fill="#0E0E0E"></path><path d="M2327.52 367.289C2327.84 367.101 2328.07 367.258 2328.32 367.679C2328.09 367.764 2327.78 367.661 2327.52 367.289Z" fill="#0E0E0E"></path><path d="M2035.52 367.288C2035.84 367.1 2036.07 367.257 2036.32 367.679C2036.09 367.764 2035.78 367.661 2035.52 367.288Z" fill="#0E0E0E"></path><path d="M1416.71 367.909C1416.51 367.589 1416.67 367.367 1417.09 367.112C1417.18 367.332 1417.08 367.641 1416.71 367.909Z" fill="#0E0E0E"></path><path d="M1347.54 367.284C1347.85 367.11 1348.06 367.266 1348.31 367.668C1348.1 367.747 1347.8 367.647 1347.54 367.284Z" fill="#0E0E0E"></path><path d="M1113.71 367.908C1113.51 367.589 1113.67 367.366 1114.09 367.111C1114.18 367.332 1114.08 367.641 1113.71 367.908Z" fill="#0E0E0E"></path><path d="M1034.54 367.284C1034.85 367.11 1035.06 367.266 1035.31 367.668C1035.1 367.747 1034.8 367.646 1034.54 367.284Z" fill="#0E0E0E"></path><path d="M1188.71 248.907C1188.56 248.55 1188.78 248.324 1189.32 248.113C1189.36 248.341 1189.17 248.644 1188.71 248.907Z" fill="#0E0E0E"></path></svg>
