<svg width="154" height="45" viewBox="0 0 154 45" fill="none" xmlns="http://www.w3.org/2000/svg">
<g clip-path="url(#clip0_8375_3543)">
<path d="M38.2178 32.3033L38.6521 32.2169C38.6521 32.476 38.8258 32.7351 38.9995 32.8215C39.1732 32.9943 39.4338 32.9943 39.7812 32.9943C40.1287 32.9943 40.3892 32.9079 40.4761 32.8215C40.6498 32.6488 40.7367 32.5624 40.7367 32.3896C40.7367 32.2169 40.6498 32.1305 40.563 31.9578C40.3892 31.8714 40.1287 31.785 39.6075 31.6987C39.0864 31.6123 38.8258 31.4396 38.6521 31.2668C38.4783 31.0941 38.3915 30.9213 38.3915 30.6622C38.3915 30.3167 38.5652 30.0576 38.7389 29.8848C38.9995 29.7121 39.3469 29.6257 39.6944 29.6257C40.1287 29.6257 40.563 29.7121 40.7367 29.9712C40.9972 30.144 41.0841 30.4031 41.0841 30.7486H40.563C40.563 30.3167 40.2155 30.0576 39.6944 30.0576C39.0864 30.0576 38.8258 30.2303 38.8258 30.5758C38.8258 30.7486 38.9126 30.8349 38.9995 30.9213C39.0864 31.0077 39.3469 31.0941 39.6944 31.1804C40.0418 31.2668 40.3024 31.3532 40.563 31.4396C40.7367 31.5259 40.9104 31.6123 40.9972 31.785C41.0841 31.9578 41.171 32.1305 41.171 32.3033C41.171 32.6488 40.9972 32.9079 40.7367 33.0806C40.4761 33.2534 40.1287 33.3397 39.7812 33.3397C39.2601 33.3397 38.8258 33.2534 38.5652 32.9943C38.3915 32.9079 38.2178 32.6488 38.2178 32.3033ZM45.5139 31.6987C45.5139 31.2668 45.6007 31.0077 45.7745 30.6622C45.9482 30.4031 46.1219 30.144 46.3825 29.9712C46.643 29.7985 46.9905 29.7121 47.3379 29.7121C47.8591 29.7121 48.2934 29.8848 48.6408 30.2303C48.9882 30.5758 49.1619 31.0077 49.1619 31.6123C49.1619 32.2169 48.9882 32.7351 48.6408 32.9943C48.2934 33.3397 47.8591 33.5125 47.3379 33.5125C46.8168 33.5125 46.3825 33.3397 46.035 32.9943C45.6876 32.6488 45.5139 32.2169 45.5139 31.6987ZM46.035 31.6987C46.035 32.1305 46.1219 32.476 46.3825 32.7351C46.643 32.9943 46.9036 33.167 47.3379 33.167C47.7722 33.167 48.1196 32.9943 48.2933 32.7351C48.5539 32.476 48.6408 32.1305 48.6408 31.6987C48.6408 31.1804 48.5539 30.8349 48.2933 30.5758C48.0328 30.3167 47.6853 30.2303 47.3379 30.2303C46.9036 30.2303 46.5562 30.4031 46.2956 30.6622C46.1219 30.9213 46.035 31.2668 46.035 31.6987ZM53.5049 33.5125V29.8848H56.1106V30.2303H54.026V31.3532H55.7632V31.785H54.026V33.4261H53.5049V33.5125ZM61.409 33.5125V30.2303H60.193V29.7985H63.233V30.2303H62.017V33.4261H61.409V33.5125ZM68.0102 33.5125L66.9679 29.8848H67.4891L68.0971 32.3033C68.1839 32.5624 68.1839 32.8215 68.2708 33.0806L68.4445 32.3896L69.1394 29.8848H69.7474L70.2685 31.6987C70.4423 32.1305 70.5291 32.5624 70.5291 32.9943C70.5291 32.8215 70.616 32.5624 70.7028 32.2169L71.3108 29.8848H71.832L70.7897 33.5125H70.3554L69.5737 30.7486L69.4 30.2303C69.4 30.4031 69.3131 30.4895 69.3131 30.6622L68.5314 33.4261H68.0102V33.5125ZM75.6538 33.5125L77.1304 29.8848H77.6515L79.2149 33.5125H78.6069L78.1726 32.3896H76.6092L76.1749 33.5125H75.6538ZM76.7829 31.9578H78.0858L77.6515 30.9213C77.4778 30.6622 77.4778 30.4031 77.3909 30.144C77.3041 30.4031 77.2172 30.5758 77.2172 30.8349L76.7829 31.9578ZM83.2973 33.5125V29.8848H84.9476C85.2082 29.8848 85.4688 29.8849 85.6425 29.9712C85.8162 29.9712 85.9899 30.144 86.1636 30.3167C86.3373 30.4895 86.3373 30.6622 86.3373 30.9213C86.3373 31.5259 85.9899 31.8714 85.295 31.9578C85.5556 32.0442 85.8162 32.3033 85.9899 32.6488L86.6848 33.5989H85.9899L85.4688 32.8215C85.295 32.5624 85.1213 32.3033 85.0345 32.2169C84.9476 32.1305 84.8607 32.0442 84.7739 32.0442C84.687 32.0442 84.5133 31.9578 84.3396 31.9578H83.7316V33.5989H83.2973V33.5125ZM83.8184 31.4396H84.8607C85.4688 31.4396 85.8162 31.2668 85.8162 30.8349C85.8162 30.4031 85.5556 30.2303 85.0345 30.2303H83.8184V31.4396ZM90.854 33.5125V29.8848H93.6335V30.2303H91.3751V31.3532H93.4597V31.785H91.3751V32.9943H93.7203V33.4261H90.854V33.5125ZM99.7135 32.3033L100.148 32.2169C100.148 32.476 100.322 32.7351 100.495 32.8215C100.669 32.9943 100.93 32.9943 101.277 32.9943C101.624 32.9943 101.798 32.9079 101.972 32.8215C102.146 32.6488 102.232 32.5624 102.232 32.3896C102.232 32.2169 102.146 32.1305 101.972 31.9578C101.798 31.8714 101.538 31.785 101.016 31.6987C100.495 31.6123 100.235 31.4396 100.061 31.2668C99.8873 31.0941 99.8004 30.9213 99.8004 30.6622C99.8004 30.3167 99.9741 30.0576 100.235 29.8848C100.495 29.7121 100.843 29.6257 101.19 29.6257C101.624 29.6257 102.059 29.7121 102.232 29.9712C102.493 30.144 102.58 30.4031 102.58 30.7486H102.059C101.972 30.3167 101.711 30.0576 101.103 30.0576C100.495 30.0576 100.235 30.2303 100.235 30.5758C100.235 30.7486 100.322 30.8349 100.408 30.9213C100.495 31.0077 100.756 31.0941 101.103 31.1804C101.451 31.2668 101.711 31.3532 101.885 31.4396C102.059 31.5259 102.232 31.6123 102.406 31.785C102.493 31.9578 102.58 32.1305 102.58 32.3033C102.58 32.6488 102.406 32.9079 102.146 33.0806C101.885 33.2534 101.538 33.3397 101.103 33.3397C100.582 33.3397 100.148 33.2534 99.8873 32.9943C99.8004 32.9079 99.7135 32.6488 99.7135 32.3033ZM107.097 33.5125V29.8848H109.789V30.2303H107.531V31.3532H109.615V31.785H107.531V32.9943H109.876V33.4261H107.097V33.5125ZM114.393 33.5125V29.8848H116.043C116.304 29.8848 116.564 29.8849 116.738 29.9712C116.912 29.9712 117.085 30.144 117.172 30.3167C117.346 30.4895 117.346 30.6622 117.346 30.9213C117.346 31.5259 116.998 31.8714 116.303 31.9578C116.564 32.0442 116.825 32.3033 116.998 32.6488L117.693 33.5989H117.085L116.564 32.8215C116.39 32.5624 116.217 32.3033 116.13 32.2169C116.043 32.1305 115.956 32.0442 115.869 32.0442C115.782 32.0442 115.695 31.9578 115.435 31.9578H114.827V33.5989H114.393V33.5125ZM114.827 31.4396H115.869C116.477 31.4396 116.825 31.2668 116.825 30.8349C116.825 30.4031 116.564 30.2303 116.043 30.2303H114.827V31.4396ZM122.992 33.5125L121.515 29.8848H122.036L122.992 32.5624C123.078 32.8215 123.165 32.9943 123.165 33.167C123.252 32.9943 123.252 32.8215 123.339 32.5624L124.381 29.8848H124.902L123.426 33.5125H122.992ZM129.245 33.5125V29.8848H129.767V33.5125H129.245ZM136.976 32.2169L137.497 32.3896C137.323 33.167 136.802 33.5989 135.934 33.5989C135.325 33.5989 134.891 33.4261 134.631 32.9943C134.37 32.6488 134.196 32.1305 134.196 31.6123C134.196 31.0077 134.37 30.4895 134.717 30.2303C135.065 29.8848 135.499 29.7985 136.02 29.7985C136.802 29.7985 137.323 30.144 137.497 30.8349L136.976 30.9213C136.802 30.4031 136.455 30.144 135.934 30.144C135.499 30.144 135.152 30.3167 134.978 30.5758C134.804 30.8349 134.717 31.1804 134.717 31.6123C134.717 32.1305 134.804 32.5624 135.065 32.7351C135.325 32.9943 135.586 33.0806 135.934 33.0806C136.542 33.167 136.889 32.8215 136.976 32.2169ZM141.84 33.5125V29.8848H144.619V30.2303H142.361V31.3532H144.446V31.785H142.361V32.9943H144.706V33.4261H141.84V33.5125ZM148.875 32.3033L149.31 32.2169C149.31 32.476 149.483 32.7351 149.657 32.8215C149.831 32.9943 150.091 32.9943 150.439 32.9943C150.786 32.9943 150.96 32.9079 151.134 32.8215C151.307 32.6488 151.394 32.5624 151.394 32.3896C151.394 32.2169 151.307 32.1305 151.221 31.9578C151.047 31.8714 150.786 31.785 150.265 31.6987C149.744 31.6123 149.483 31.4396 149.31 31.2668C149.136 31.0941 149.049 30.9213 149.049 30.6622C149.049 30.3167 149.223 30.0576 149.483 29.8848C149.744 29.7121 150.091 29.6257 150.439 29.6257C150.873 29.6257 151.307 29.7121 151.481 29.9712C151.742 30.144 151.829 30.4031 151.829 30.7486H151.307C151.307 30.3167 150.96 30.0576 150.352 30.0576C149.744 30.0576 149.483 30.2303 149.483 30.5758C149.483 30.7486 149.57 30.8349 149.657 30.9213C149.744 31.0077 150.005 31.0941 150.352 31.1804C150.699 31.2668 150.96 31.3532 151.134 31.4396C151.307 31.5259 151.481 31.6123 151.655 31.785C151.742 31.9578 151.829 32.1305 151.829 32.3033C151.829 32.6488 151.655 32.9079 151.394 33.0806C151.134 33.2534 150.786 33.3397 150.439 33.3397C149.918 33.3397 149.483 33.2534 149.223 32.9943C149.049 32.9079 148.875 32.6488 148.875 32.3033Z" fill="#2A2F50"/>
<path fill-rule="evenodd" clip-rule="evenodd" d="M16.5032 12.0058C14.4186 12.7832 12.8551 14.3379 13.6369 17.4473C15.0266 22.3705 21.541 18.5701 24.581 23.3206C26.6656 26.5164 26.5788 33.0807 22.149 35.24C19.8038 36.3628 17.2849 35.8446 15.374 36.8811C11.118 39.2131 14.2449 47.1594 19.9775 44.3955C24.4073 42.3225 20.6724 36.2765 25.8839 33.7717C28.2291 32.6488 30.8348 33.2534 32.7457 32.217C34.3092 31.3532 35.6989 29.0212 34.4829 26.6028C32.572 22.716 26.6656 25.6527 23.5387 20.7294C22.149 18.4838 22.9307 16.0653 21.8884 14.0788C21.1935 12.6104 19.0221 11.0557 16.5032 12.0058Z" fill="#2A2F50"/>
<path fill-rule="evenodd" clip-rule="evenodd" d="M15.4609 0.431895C9.90191 2.93669 14.8528 7.51443 9.2939 11.1421C7.03558 12.6104 -2.17141 11.7467 0.347485 18.5701C1.9978 23.0615 8.2516 19.1747 11.3785 24.357C12.6814 26.5163 12.0734 28.9348 13.0288 31.0077C13.8105 32.6488 16.59 34.0307 19.1089 32.8215C21.2804 31.6987 24.7547 25.4799 15.6346 24.357C10.6836 23.7524 8.2516 19.952 9.20705 14.597C10.4231 7.25531 15.8083 10.1056 19.2826 8.03266C24.0598 5.26875 20.5855 -1.81379 15.4609 0.431895Z" fill="#66CBF4"/>
<path d="M37.6967 13.906H40.2156V22.1978C40.2156 22.8888 40.3024 23.407 40.3893 23.7525C40.563 24.0116 40.7367 24.2707 40.9973 24.4435C41.2579 24.6162 41.6922 24.7026 42.0396 24.7026C42.4739 24.7026 42.9082 24.6162 43.1687 24.4435C43.5162 24.2707 43.6899 24.0116 43.8636 23.6661C43.9505 23.3206 44.0373 22.8024 44.0373 21.9387V13.906H46.5562V21.5932C46.5562 22.8888 46.4694 23.7525 46.2956 24.2707C46.1219 24.789 45.8614 25.2208 45.4271 25.739C44.9928 26.1709 44.5585 26.6028 43.9505 26.7755C43.4293 27.0346 42.7345 27.121 42.0396 27.121C41.0841 27.121 40.2156 26.8619 39.5207 26.43C38.8258 25.9982 38.3047 25.4799 37.9572 24.8753C37.6967 24.1843 37.5229 23.1479 37.5229 21.5932V13.906H37.6967ZM48.2065 13.906H50.6386L56.3712 22.3705V13.906H58.8901V26.6891H56.4581L50.7254 18.311V26.6891H48.2065V13.906ZM60.2799 13.906H62.7988V26.6891H60.2799V13.906ZM70.4423 13.5605C72.3532 13.5605 73.9166 14.2515 75.3064 15.5471C76.6961 16.8427 77.391 18.4838 77.391 20.384C77.391 22.2842 76.6961 23.8389 75.3932 25.1344C74.0904 26.43 72.44 27.121 70.5292 27.121C68.5314 27.121 66.8811 26.43 65.5782 25.1344C64.2753 23.8389 63.5805 22.1978 63.5805 20.384C63.5805 19.1748 63.9279 18.0519 64.5359 17.0154C65.1439 15.979 66.0125 15.2016 67.0548 14.597C68.0971 13.906 69.2263 13.5605 70.4423 13.5605ZM70.4423 15.979C69.2263 15.979 68.184 16.4108 67.3154 17.1882C66.4468 18.0519 66.0994 19.0884 66.0994 20.2976C66.0994 21.6795 66.6205 22.8024 67.6628 23.6661C68.5314 24.2707 69.4 24.6162 70.5292 24.6162C71.7452 24.6162 72.7006 24.1843 73.5692 23.3206C74.4378 22.4569 74.8721 21.5068 74.8721 20.2112C74.8721 19.002 74.4378 17.9655 73.5692 17.1018C72.7006 16.4108 71.6583 15.979 70.4423 15.979ZM78.3464 13.906H80.7785L86.5111 22.3705V13.906H89.03V26.6891H86.598L80.8653 18.311V26.6891H78.3464V13.906Z" fill="#66CBF4"/>
<path d="M97.5421 15.6335L95.6312 17.2746C94.9363 16.4109 94.3283 15.979 93.6334 15.979C93.286 15.979 93.0254 16.0654 92.7649 16.2381C92.5911 16.4109 92.4174 16.5836 92.4174 16.8427C92.4174 17.0155 92.5043 17.2746 92.678 17.4474C92.8517 17.7065 93.4597 18.2247 94.502 19.0884C95.4575 19.8658 96.0655 20.384 96.2392 20.5568C96.7604 21.075 97.1078 21.5069 97.2815 21.9387C97.5421 22.3706 97.6289 22.8888 97.6289 23.4071C97.6289 24.4435 97.2815 25.3072 96.4998 25.9982C95.718 26.6892 94.7626 27.0347 93.5466 27.0347C92.5911 27.0347 91.8094 26.7756 91.1146 26.3437C90.4197 25.9118 89.8117 25.2209 89.2905 24.1844L91.462 22.9752C92.07 24.098 92.8517 24.7026 93.6334 24.7026C94.0677 24.7026 94.4152 24.5299 94.7626 24.3571C95.0232 24.098 95.1969 23.8389 95.1969 23.4934C95.1969 23.2343 95.11 22.8888 94.8495 22.6297C94.5889 22.3706 94.1546 21.9387 93.3729 21.3341C91.8963 20.2113 90.9408 19.3475 90.5934 18.6566C90.1591 18.052 89.9854 17.4474 89.9854 16.8427C89.9854 15.979 90.3328 15.2017 91.0277 14.5971C91.7226 13.9925 92.5911 13.647 93.6334 13.647C94.3283 13.647 94.9363 13.8197 95.5443 14.0788C96.2392 14.338 96.8472 14.8562 97.5421 15.6335ZM97.8027 13.9061H100.495L102.927 18.4838L105.446 13.9061H108.139L104.23 21.1614V26.6892H101.711V21.1614L97.8027 13.9061ZM115.782 15.6335L113.958 17.2746C113.263 16.4109 112.655 15.979 111.961 15.979C111.613 15.979 111.353 16.0654 111.179 16.2381C111.005 16.4109 110.831 16.5836 110.831 16.8427C110.831 17.0155 110.918 17.2746 111.092 17.4474C111.266 17.7065 111.961 18.2247 113.003 19.0884C113.958 19.8658 114.566 20.384 114.74 20.5568C115.261 21.075 115.609 21.5069 115.869 21.9387C116.043 22.3706 116.217 22.8888 116.217 23.4071C116.217 24.4435 115.869 25.3072 115.087 25.9982C114.306 26.6892 113.35 27.0347 112.134 27.0347C111.179 27.0347 110.397 26.7756 109.702 26.3437C109.007 25.9118 108.399 25.2209 107.878 24.1844L110.05 22.9752C110.658 24.098 111.439 24.7026 112.308 24.7026C112.742 24.7026 113.09 24.5299 113.437 24.3571C113.698 24.098 113.871 23.8389 113.871 23.4934C113.871 23.2343 113.785 22.8888 113.524 22.6297C113.35 22.3706 112.829 21.9387 112.047 21.3341C110.571 20.2113 109.702 19.3475 109.268 18.6566C108.834 18.052 108.66 17.4474 108.66 16.8427C108.66 15.979 109.007 15.2017 109.702 14.5971C110.397 13.9925 111.266 13.647 112.308 13.647C113.003 13.647 113.611 13.8197 114.219 14.0788C114.479 14.338 115.087 14.8562 115.782 15.6335ZM115.695 13.9061H123.078V16.3245H120.646V26.6892H118.041V16.3245H115.695V13.9061ZM123.339 13.9061H130.635V16.3245H125.858V18.6566H130.635V20.9886H125.858V24.3571H130.635V26.6892H123.339V13.9061ZM132.807 13.9061H135.326L138.452 22.8888L141.579 13.9061H144.011L146.27 26.6892H143.838L142.448 18.5702L139.668 26.6892H137.236L134.457 18.5702L132.98 26.6892H130.548L132.807 13.9061ZM153.739 15.6335L151.829 17.2746C151.134 16.4109 150.526 15.979 149.831 15.979C149.483 15.979 149.223 16.0654 149.049 16.2381C148.875 16.4109 148.702 16.5836 148.702 16.8427C148.702 17.0155 148.789 17.2746 148.962 17.4474C149.136 17.7065 149.831 18.2247 150.786 19.0884C151.742 19.8658 152.35 20.384 152.523 20.5568C153.045 21.075 153.392 21.5069 153.653 21.9387C153.826 22.3706 154 22.8888 154 23.4071C154 24.4435 153.653 25.3072 152.871 25.9982C152.089 26.6892 151.134 27.0347 149.918 27.0347C148.962 27.0347 148.181 26.7756 147.486 26.3437C146.791 25.9118 146.183 25.2209 145.662 24.1844L147.833 22.9752C148.441 24.098 149.223 24.7026 150.005 24.7026C150.439 24.7026 150.786 24.5299 151.134 24.3571C151.394 24.098 151.568 23.8389 151.568 23.4934C151.568 23.2343 151.481 22.8888 151.221 22.6297C151.047 22.3706 150.526 21.9387 149.744 21.3341C148.267 20.2113 147.399 19.3475 146.965 18.6566C146.53 18.052 146.357 17.4474 146.357 16.8427C146.357 15.979 146.704 15.2017 147.399 14.5971C148.094 13.9925 148.962 13.647 150.005 13.647C150.699 13.647 151.307 13.8197 151.915 14.0788C152.437 14.338 153.045 14.8562 153.739 15.6335Z" fill="#2A2F50"/>
</g>
<defs>
<clipPath id="clip0_8375_3543">
<rect width="154" height="45" fill="white"/>
</clipPath>
</defs>
</svg>
