<svg width="76" height="24" viewBox="0 0 76 24" fill="none" xmlns="http://www.w3.org/2000/svg">
<path d="M5.80982 9.92814C5.83451 10.9744 1.94689 12.0229 0 12.4164C12.5239 12.4164 19.6618 6.97437 21.6653 4.25335L22.9769 5.56113V0.322266L17.2983 1.56447L18.6099 2.27045C16.5267 5.83118 9.97622 8.88654 9.5403 8.88654C9.19155 8.88654 9.39499 5.14707 9.5403 3.27733H5.80982C5.79953 5.05834 5.78513 8.88191 5.80982 9.92814Z" fill="#24C3E9"/>
<path d="M9.26928 11.7918C7.97778 12.1275 7.01463 12.3172 5.78516 12.4339V16.3335C5.78516 17.1893 5.88744 18.0421 6.08984 18.8736L6.23732 19.4795C6.33895 19.897 6.50355 20.3012 6.75385 20.6505C9.10543 23.9321 11.6952 23.4302 13.4539 23.0833C14.9336 22.7915 16.3056 20.9795 16.8066 20.11V23.0833H20.1631L20.2324 6.40332C18.7475 7.65468 17.9923 8.16545 16.6279 8.97537V16.3225C16.6279 16.8132 16.5199 17.3008 16.3141 17.7461C15.9815 18.4654 15.4234 19.0626 14.7267 19.4404L13.8767 19.9012C13.4169 20.1505 12.8806 20.2189 12.3729 20.0929C11.2666 19.8183 10.3302 19.0842 9.79951 18.0753L9.58243 17.6626C9.37675 17.2716 9.26928 16.8364 9.26928 16.3946V11.7918Z" fill="#1C0243"/>
<path d="M28.583 12.685V15.2612H21.6488V12.685H28.583ZM23.1015 10.0516H26.6008V20.2204C26.6008 20.4351 26.6342 20.6092 26.701 20.7428C26.7726 20.8716 26.8751 20.9646 27.0087 21.0219C27.1423 21.0743 27.3021 21.1006 27.4882 21.1006C27.6217 21.1006 27.7625 21.0886 27.9104 21.0648C28.063 21.0362 28.1775 21.0123 28.2539 20.9932L28.7834 23.5193C28.6164 23.567 28.3803 23.6267 28.075 23.6982C27.7744 23.7698 27.4142 23.8151 26.9944 23.8342C26.1738 23.8724 25.4702 23.7769 24.8834 23.5479C24.3013 23.3142 23.8553 22.9516 23.5452 22.4602C23.2398 21.9688 23.0919 21.351 23.1015 20.6068V10.0516ZM30.3685 23.6768V12.685H33.8678V23.6768H30.3685ZM32.1217 11.4041C31.6303 11.4041 31.2081 11.2419 30.8551 10.9175C30.5021 10.5883 30.3256 10.1923 30.3256 9.72956C30.3256 9.27157 30.5021 8.88037 30.8551 8.55596C31.2081 8.22678 31.6303 8.06219 32.1217 8.06219C32.6179 8.06219 33.0401 8.22678 33.3884 8.55596C33.7414 8.88037 33.9179 9.27157 33.9179 9.72956C33.9179 10.1923 33.7414 10.5883 33.3884 10.9175C33.0401 11.2419 32.6179 11.4041 32.1217 11.4041ZM39.5945 9.0211V23.6768H36.0951V9.0211H39.5945ZM46.9527 23.8843C45.7982 23.8843 44.8059 23.6481 43.9758 23.1758C43.1504 22.6988 42.5135 22.0356 42.0651 21.1864C41.6214 20.3325 41.3996 19.3426 41.3996 18.2167C41.3996 17.086 41.6214 16.0961 42.0651 15.2469C42.5135 14.3929 43.1504 13.7298 43.9758 13.2575C44.8059 12.7804 45.7982 12.5419 46.9527 12.5419C48.1072 12.5419 49.0971 12.7804 49.9225 13.2575C50.7526 13.7298 51.3895 14.3929 51.8332 15.2469C52.2816 16.0961 52.5058 17.086 52.5058 18.2167C52.5058 19.3426 52.2816 20.3325 51.8332 21.1864C51.3895 22.0356 50.7526 22.6988 49.9225 23.1758C49.0971 23.6481 48.1072 23.8843 46.9527 23.8843ZM46.9742 21.2437C47.394 21.2437 47.7494 21.1149 48.0404 20.8573C48.3314 20.5996 48.5533 20.2418 48.7059 19.7838C48.8634 19.3259 48.9421 18.7963 48.9421 18.1952C48.9421 17.5845 48.8634 17.0502 48.7059 16.5922C48.5533 16.1342 48.3314 15.7764 48.0404 15.5188C47.7494 15.2612 47.394 15.1324 46.9742 15.1324C46.54 15.1324 46.1727 15.2612 45.8721 15.5188C45.5764 15.7764 45.3497 16.1342 45.1923 16.5922C45.0396 17.0502 44.9633 17.5845 44.9633 18.1952C44.9633 18.7963 45.0396 19.3259 45.1923 19.7838C45.3497 20.2418 45.5764 20.5996 45.8721 20.8573C46.1727 21.1149 46.54 21.2437 46.9742 21.2437ZM61.3901 18.9323V12.685H64.8823V23.6768H61.5475V21.6301H61.433C61.1897 22.3028 60.7747 22.8371 60.1879 23.2331C59.6058 23.6243 58.9022 23.8199 58.0768 23.8199C57.3278 23.8199 56.6695 23.6481 56.1018 23.3046C55.534 22.9611 55.0927 22.4817 54.7779 21.8663C54.463 21.2461 54.3032 20.5209 54.2984 19.6908V12.685H57.7977V19.0038C57.8025 19.6002 57.96 20.0701 58.27 20.4136C58.5801 20.7571 59.0024 20.9288 59.5367 20.9288C59.8849 20.9288 60.1974 20.8525 60.4741 20.6998C60.7556 20.5424 60.9774 20.3158 61.1396 20.02C61.3066 19.7194 61.3901 19.3569 61.3901 18.9323ZM67.1096 23.6768V12.685H70.5087V14.6887H70.6232C70.8236 13.9636 71.1504 13.4245 71.6036 13.0714C72.0568 12.7136 72.584 12.5347 73.1851 12.5347C73.3473 12.5347 73.5143 12.5467 73.686 12.5705C73.8578 12.5896 74.0176 12.6206 74.1655 12.6635V15.7049C73.9985 15.6476 73.7791 15.6023 73.5071 15.5689C73.24 15.5355 73.0014 15.5188 72.7915 15.5188C72.3765 15.5188 72.002 15.6119 71.668 15.7979C71.3388 15.9792 71.0788 16.2344 70.888 16.5636C70.7019 16.888 70.6089 17.2697 70.6089 17.7086V23.6768H67.1096Z" fill="#1C0243"/>
</svg>
